# MagicaVoxel @ Ephtracy

# group
o 

# material
mtllib slime.mtl
usemtl palette

# normals
vn -1 0 0
vn 1 0 0
vn 0 0 1
vn 0 0 -1
vn 0 -1 0
vn 0 1 0

# texcoords
vt 0.00195312 0.5
vt 0.0292969 0.5
vt 0.0566406 0.5
vt 0.423828 0.5
vt 0.994141 0.5

# verts
v -0.6 0 0.6
v -0.6 0 -0.5
v -0.6 0.2 0.6
v -0.6 0.2 0.5
v -0.6 0.4 0.6
v -0.6 0.4 0.5
v -0.6 0.4 -0.5
v -0.5 0.4 0.5
v -0.5 0.4 -0.4
v -0.5 0.6 0.5
v -0.5 0.6 -0.4
v -0.4 0.6 0.4
v -0.4 0.6 -0.3
v -0.4 0.7 0.4
v -0.4 0.7 -0.3
v -0.2 0.7 0.3
v -0.2 0.7 -0.2
v -0.2 0.8 0.3
v -0.2 0.8 -0.2
v -0.1 0.8 0.2
v -0.1 0.8 0
v -0.1 0.9 0.2
v -0.1 0.9 0
v 0.1 0.8 0.2
v 0.1 0.8 0
v 0.1 0.9 0.2
v 0.1 0.9 0
v 0.2 0.7 0.3
v 0.2 0.7 0.2
v 0.2 0.7 -0.2
v 0.2 0.8 0.3
v 0.2 0.8 0.2
v 0.2 0.8 -0.2
v 0.4 0.6 0.4
v 0.4 0.6 -0.3
v 0.4 0.7 0.4
v 0.4 0.7 -0.3
v 0.5 0.4 0.5
v 0.5 0.4 -0.4
v 0.5 0.6 0.5
v 0.5 0.6 -0.4
v 0.6 0 0.6
v 0.6 0 -0.5
v 0.6 0.2 0.6
v 0.6 0.2 0.5
v 0.6 0.3 0.6
v 0.6 0.3 0.5
v 0.6 0.4 0.6
v 0.6 0.4 0.5
v 0.6 0.4 -0.5
v -0.6 0 0.6
v -0.6 0.2 0.6
v -0.6 0.4 0.6
v -0.5 0.3 0.6
v -0.5 0.4 0.6
v -0.4 0.2 0.6
v -0.4 0.3 0.6
v -0.4 0.4 0.6
v -0.2 0.3 0.6
v -0.2 0.4 0.6
v -0.1 0.3 0.6
v -0.1 0.4 0.6
v 0.1 0.3 0.6
v 0.1 0.4 0.6
v 0.2 0.3 0.6
v 0.2 0.4 0.6
v 0.4 0.2 0.6
v 0.4 0.4 0.6
v 0.5 0.3 0.6
v 0.5 0.4 0.6
v 0.6 0 0.6
v 0.6 0.2 0.6
v 0.6 0.3 0.6
v 0.6 0.4 0.6
v -0.5 0.4 0.5
v -0.5 0.6 0.5
v -0.4 0.4 0.5
v -0.4 0.5 0.5
v -0.4 0.6 0.5
v -0.3 0.4 0.5
v -0.3 0.5 0.5
v -0.3 0.6 0.5
v -0.2 0.4 0.5
v -0.2 0.5 0.5
v -0.1 0.4 0.5
v 0.1 0.4 0.5
v 0.2 0.4 0.5
v 0.2 0.5 0.5
v 0.3 0.4 0.5
v 0.3 0.5 0.5
v 0.3 0.6 0.5
v 0.4 0.4 0.5
v 0.4 0.5 0.5
v 0.4 0.6 0.5
v 0.5 0.4 0.5
v 0.5 0.6 0.5
v -0.4 0.6 0.4
v -0.4 0.7 0.4
v -0.3 0.6 0.4
v 0.3 0.6 0.4
v 0.4 0.6 0.4
v 0.4 0.7 0.4
v -0.2 0.7 0.3
v -0.2 0.8 0.3
v 0.1 0.7 0.3
v 0.1 0.8 0.3
v 0.2 0.7 0.3
v 0.2 0.8 0.3
v -0.1 0.8 0.2
v -0.1 0.9 0.2
v 0.1 0.8 0.2
v 0.1 0.9 0.2
v -0.1 0.8 0
v -0.1 0.9 0
v 0.1 0.8 0
v 0.1 0.9 0
v -0.2 0.7 -0.2
v -0.2 0.8 -0.2
v 0.2 0.7 -0.2
v 0.2 0.8 -0.2
v -0.4 0.6 -0.3
v -0.4 0.7 -0.3
v 0.4 0.6 -0.3
v 0.4 0.7 -0.3
v -0.5 0.4 -0.4
v -0.5 0.6 -0.4
v 0.5 0.4 -0.4
v 0.5 0.6 -0.4
v -0.6 0 -0.5
v -0.6 0.4 -0.5
v 0.6 0 -0.5
v 0.6 0.4 -0.5
v -0.6 0 0.6
v 0.6 0 0.6
v -0.6 0 -0.5
v 0.6 0 -0.5
v -0.6 0.4 0.6
v -0.5 0.4 0.6
v -0.4 0.4 0.6
v -0.2 0.4 0.6
v -0.1 0.4 0.6
v 0.1 0.4 0.6
v 0.2 0.4 0.6
v 0.4 0.4 0.6
v 0.5 0.4 0.6
v 0.6 0.4 0.6
v -0.6 0.4 0.5
v -0.5 0.4 0.5
v -0.4 0.4 0.5
v -0.3 0.4 0.5
v -0.2 0.4 0.5
v -0.1 0.4 0.5
v 0.1 0.4 0.5
v 0.2 0.4 0.5
v 0.3 0.4 0.5
v 0.4 0.4 0.5
v 0.5 0.4 0.5
v 0.6 0.4 0.5
v -0.5 0.4 -0.4
v 0.5 0.4 -0.4
v -0.6 0.4 -0.5
v 0.6 0.4 -0.5
v -0.5 0.6 0.5
v -0.4 0.6 0.5
v -0.3 0.6 0.5
v 0.3 0.6 0.5
v 0.4 0.6 0.5
v 0.5 0.6 0.5
v -0.4 0.6 0.4
v -0.3 0.6 0.4
v 0.3 0.6 0.4
v 0.4 0.6 0.4
v -0.4 0.6 -0.3
v 0.4 0.6 -0.3
v -0.5 0.6 -0.4
v 0.5 0.6 -0.4
v -0.4 0.7 0.4
v 0.4 0.7 0.4
v -0.2 0.7 0.3
v 0.1 0.7 0.3
v 0.2 0.7 0.3
v 0.2 0.7 0.2
v -0.2 0.7 -0.2
v 0.2 0.7 -0.2
v -0.4 0.7 -0.3
v 0.4 0.7 -0.3
v -0.2 0.8 0.3
v 0.1 0.8 0.3
v 0.2 0.8 0.3
v -0.1 0.8 0.2
v 0.1 0.8 0.2
v 0.2 0.8 0.2
v -0.1 0.8 0
v 0.1 0.8 0
v -0.2 0.8 -0.2
v 0.2 0.8 -0.2
v -0.1 0.9 0.2
v 0.1 0.9 0.2
v -0.1 0.9 0
v 0.1 0.9 0

# faces
f 3/4/1 2/4/1 1/4/1
f 4/4/1 2/4/1 3/4/1
f 5/2/1 4/2/1 3/2/1
f 6/4/1 2/4/1 4/4/1
f 6/2/1 4/2/1 5/2/1
f 7/4/1 2/4/1 6/4/1
f 10/4/1 9/4/1 8/4/1
f 11/4/1 9/4/1 10/4/1
f 14/4/1 13/4/1 12/4/1
f 15/4/1 13/4/1 14/4/1
f 18/4/1 17/4/1 16/4/1
f 19/4/1 17/4/1 18/4/1
f 22/4/1 21/4/1 20/4/1
f 23/4/1 21/4/1 22/4/1
f 24/4/2 25/4/2 26/4/2
f 26/4/2 25/4/2 27/4/2
f 28/1/2 29/1/2 31/1/2
f 29/4/2 30/4/2 32/4/2
f 31/1/2 29/1/2 32/1/2
f 32/4/2 30/4/2 33/4/2
f 34/4/2 35/4/2 36/4/2
f 36/4/2 35/4/2 37/4/2
f 38/4/2 39/4/2 40/4/2
f 40/4/2 39/4/2 41/4/2
f 42/4/2 43/4/2 44/4/2
f 44/4/2 43/4/2 45/4/2
f 44/2/2 45/2/2 46/2/2
f 45/4/2 43/4/2 47/4/2
f 46/2/2 45/2/2 47/2/2
f 46/3/2 47/3/2 48/3/2
f 47/4/2 43/4/2 49/4/2
f 48/3/2 47/3/2 49/3/2
f 49/4/2 43/4/2 50/4/2
f 54/2/3 53/2/3 52/2/3
f 55/2/3 53/2/3 54/2/3
f 56/4/3 52/4/3 51/4/3
f 56/2/3 54/2/3 52/2/3
f 57/3/3 55/3/3 54/3/3
f 57/2/3 54/2/3 56/2/3
f 58/3/3 55/3/3 57/3/3
f 59/4/3 57/4/3 56/4/3
f 59/4/3 58/4/3 57/4/3
f 60/4/3 58/4/3 59/4/3
f 61/4/3 59/4/3 56/4/3
f 61/5/3 60/5/3 59/5/3
f 62/5/3 60/5/3 61/5/3
f 63/4/3 61/4/3 56/4/3
f 63/4/3 62/4/3 61/4/3
f 64/4/3 62/4/3 63/4/3
f 65/4/3 63/4/3 56/4/3
f 65/5/3 64/5/3 63/5/3
f 66/5/3 64/5/3 65/5/3
f 67/4/3 56/4/3 51/4/3
f 67/4/3 65/4/3 56/4/3
f 67/4/3 66/4/3 65/4/3
f 68/4/3 66/4/3 67/4/3
f 69/2/3 68/2/3 67/2/3
f 70/2/3 68/2/3 69/2/3
f 71/4/3 67/4/3 51/4/3
f 72/2/3 69/2/3 67/2/3
f 72/4/3 67/4/3 71/4/3
f 73/3/3 70/3/3 69/3/3
f 73/2/3 69/2/3 72/2/3
f 74/3/3 70/3/3 73/3/3
f 77/4/3 76/4/3 75/4/3
f 78/4/3 76/4/3 77/4/3
f 79/4/3 76/4/3 78/4/3
f 80/4/3 78/4/3 77/4/3
f 81/5/3 79/5/3 78/5/3
f 81/4/3 78/4/3 80/4/3
f 82/5/3 79/5/3 81/5/3
f 83/5/3 81/5/3 80/5/3
f 84/4/3 82/4/3 81/4/3
f 84/5/3 81/5/3 83/5/3
f 85/4/3 84/4/3 83/4/3
f 86/4/3 84/4/3 85/4/3
f 87/4/3 84/4/3 86/4/3
f 88/4/3 82/4/3 84/4/3
f 88/4/3 84/4/3 87/4/3
f 89/5/3 88/5/3 87/5/3
f 90/4/3 82/4/3 88/4/3
f 90/5/3 88/5/3 89/5/3
f 91/4/3 82/4/3 90/4/3
f 92/4/3 90/4/3 89/4/3
f 93/5/3 91/5/3 90/5/3
f 93/4/3 90/4/3 92/4/3
f 94/5/3 91/5/3 93/5/3
f 95/4/3 93/4/3 92/4/3
f 95/4/3 94/4/3 93/4/3
f 96/4/3 94/4/3 95/4/3
f 99/4/3 98/4/3 97/4/3
f 100/4/3 98/4/3 99/4/3
f 101/4/3 98/4/3 100/4/3
f 102/4/3 98/4/3 101/4/3
f 105/4/3 104/4/3 103/4/3
f 106/4/3 104/4/3 105/4/3
f 107/1/3 106/1/3 105/1/3
f 108/1/3 106/1/3 107/1/3
f 111/4/3 110/4/3 109/4/3
f 112/4/3 110/4/3 111/4/3
f 113/4/4 114/4/4 115/4/4
f 115/4/4 114/4/4 116/4/4
f 117/4/4 118/4/4 119/4/4
f 119/4/4 118/4/4 120/4/4
f 121/4/4 122/4/4 123/4/4
f 123/4/4 122/4/4 124/4/4
f 125/4/4 126/4/4 127/4/4
f 127/4/4 126/4/4 128/4/4
f 129/4/4 130/4/4 131/4/4
f 131/4/4 130/4/4 132/4/4
f 135/4/5 134/4/5 133/4/5
f 136/4/5 134/4/5 135/4/5
f 137/2/6 138/2/6 147/2/6
f 138/3/6 139/3/6 148/3/6
f 147/2/6 138/2/6 148/2/6
f 139/4/6 140/4/6 149/4/6
f 148/3/6 139/3/6 149/3/6
f 149/4/6 140/4/6 150/4/6
f 140/5/6 141/5/6 151/5/6
f 150/4/6 140/4/6 151/4/6
f 141/4/6 142/4/6 152/4/6
f 151/5/6 141/5/6 152/5/6
f 142/5/6 143/5/6 153/5/6
f 152/4/6 142/4/6 153/4/6
f 143/4/6 144/4/6 154/4/6
f 153/5/6 143/5/6 154/5/6
f 154/4/6 144/4/6 155/4/6
f 144/2/6 145/2/6 156/2/6
f 155/4/6 144/4/6 156/4/6
f 145/3/6 146/3/6 157/3/6
f 156/2/6 145/2/6 157/2/6
f 157/3/6 146/3/6 158/3/6
f 147/4/6 148/4/6 159/4/6
f 157/4/6 158/4/6 160/4/6
f 147/4/6 159/4/6 161/4/6
f 159/4/6 160/4/6 161/4/6
f 160/4/6 158/4/6 162/4/6
f 161/4/6 160/4/6 162/4/6
f 163/4/6 164/4/6 169/4/6
f 164/5/6 165/5/6 169/5/6
f 165/4/6 166/4/6 170/4/6
f 169/5/6 165/5/6 170/5/6
f 166/5/6 167/5/6 171/5/6
f 170/4/6 166/4/6 171/4/6
f 167/4/6 168/4/6 172/4/6
f 171/5/6 167/5/6 172/5/6
f 163/4/6 169/4/6 173/4/6
f 172/4/6 168/4/6 174/4/6
f 163/4/6 173/4/6 175/4/6
f 173/4/6 174/4/6 175/4/6
f 174/4/6 168/4/6 176/4/6
f 175/4/6 174/4/6 176/4/6
f 177/4/6 178/4/6 179/4/6
f 179/4/6 178/4/6 180/4/6
f 180/4/6 178/4/6 181/4/6
f 181/4/6 178/4/6 182/4/6
f 177/4/6 179/4/6 183/4/6
f 182/4/6 178/4/6 184/4/6
f 177/4/6 183/4/6 185/4/6
f 183/4/6 184/4/6 185/4/6
f 184/4/6 178/4/6 186/4/6
f 185/4/6 184/4/6 186/4/6
f 187/4/6 188/4/6 190/4/6
f 188/1/6 189/1/6 191/1/6
f 190/4/6 188/4/6 191/4/6
f 191/1/6 189/1/6 192/1/6
f 187/4/6 190/4/6 193/4/6
f 191/4/6 192/4/6 194/4/6
f 187/4/6 193/4/6 195/4/6
f 193/4/6 194/4/6 195/4/6
f 194/4/6 192/4/6 196/4/6
f 195/4/6 194/4/6 196/4/6
f 197/4/6 198/4/6 199/4/6
f 199/4/6 198/4/6 200/4/6
