# MagicaVoxel @ Ephtracy

# group
o 

# material
mtllib 1B_Emeny.mtl
usemtl palette

# normals
vn -1 0 0
vn 1 0 0
vn 0 0 1
vn 0 0 -1
vn 0 -1 0
vn 0 1 0

# texcoords
vt 0.00195312 0.5
vt 0.283203 0.5
vt 0.994141 0.5

# verts
v -0.3 2 0.2
v -0.3 2 -0.2
v -0.3 2.3 0.2
v -0.3 2.3 -0.2
v -0.2 1.7 0.1
v -0.2 1.7 2.98023e-08
v -0.2 1.8 0.1
v -0.2 1.8 2.98023e-08
v -0.2 1.9 0.2
v -0.2 1.9 -0.2
v -0.2 2 0.2
v -0.2 2 -0.2
v -0.2 2 -0.3
v -0.2 2.3 0.2
v -0.2 2.3 -0.2
v -0.2 2.3 -0.3
v -0.2 2.4 0.2
v -0.2 2.4 -0.2
v -0.1 1.4 0.1
v -0.1 1.4 2.98023e-08
v -0.1 1.6 0.1
v -0.1 1.6 2.98023e-08
v -0.1 1.8 0.1
v -0.1 1.8 2.98023e-08
v -0.1 1.9 0.3
v -0.1 1.9 0.2
v -0.1 1.9 0.1
v -0.1 1.9 2.98023e-08
v -0.1 1.9 -0.2
v -0.1 1.9 -0.3
v -0.1 2 0.3
v -0.1 2 0.2
v -0.1 2 -0.2
v -0.1 2 -0.3
v -0.1 2 -0.4
v -0.1 2.1 0.3
v -0.1 2.1 0.2
v -0.1 2.2 0.3
v -0.1 2.2 0.2
v -0.1 2.2 -0.3
v -0.1 2.2 -0.4
v -0.1 2.3 -0.2
v -0.1 2.3 -0.3
v -0.1 2.4 0.1
v -0.1 2.4 -0.2
v -0.1 2.4 -0.3
v -0.1 2.5 0.1
v -0.1 2.5 -0.2
v -2.98023e-08 1.6 0.1
v -2.98023e-08 1.6 2.98023e-08
v -2.98023e-08 1.8 0.1
v -2.98023e-08 1.8 2.98023e-08
v -2.98023e-08 2.5 2.98023e-08
v -2.98023e-08 2.5 -0.1
v -2.98023e-08 2.6 2.98023e-08
v -2.98023e-08 2.6 -0.1
v 0.1 1.4 0.1
v 0.1 1.4 2.98023e-08
v 0.1 1.6 0.1
v 0.1 1.6 2.98023e-08
v 0.2 1.7 0.1
v 0.2 1.7 2.98023e-08
v 0.2 1.8 0.1
v 0.2 1.8 2.98023e-08
v -0.1 1.7 0.1
v -0.1 1.7 2.98023e-08
v -0.1 1.8 0.1
v -0.1 1.8 2.98023e-08
v -2.98023e-08 1.4 0.1
v -2.98023e-08 1.4 2.98023e-08
v -2.98023e-08 1.6 0.1
v -2.98023e-08 1.6 2.98023e-08
v 0.1 1.6 0.1
v 0.1 1.6 2.98023e-08
v 0.1 1.8 0.1
v 0.1 1.8 2.98023e-08
v 0.1 2.5 2.98023e-08
v 0.1 2.5 -0.1
v 0.1 2.6 2.98023e-08
v 0.1 2.6 -0.1
v 0.2 1.4 0.1
v 0.2 1.4 2.98023e-08
v 0.2 1.6 0.1
v 0.2 1.6 2.98023e-08
v 0.2 1.8 0.1
v 0.2 1.8 2.98023e-08
v 0.2 1.9 0.3
v 0.2 1.9 0.2
v 0.2 1.9 0.1
v 0.2 1.9 2.98023e-08
v 0.2 1.9 -0.2
v 0.2 1.9 -0.3
v 0.2 2 0.3
v 0.2 2 0.2
v 0.2 2 -0.2
v 0.2 2 -0.3
v 0.2 2 -0.4
v 0.2 2.1 0.3
v 0.2 2.1 0.2
v 0.2 2.2 0.3
v 0.2 2.2 0.2
v 0.2 2.2 -0.3
v 0.2 2.2 -0.4
v 0.2 2.3 -0.2
v 0.2 2.3 -0.3
v 0.2 2.4 0.1
v 0.2 2.4 -0.2
v 0.2 2.4 -0.3
v 0.2 2.5 0.1
v 0.2 2.5 -0.2
v 0.3 1.7 0.1
v 0.3 1.7 2.98023e-08
v 0.3 1.8 0.1
v 0.3 1.8 2.98023e-08
v 0.3 1.9 0.2
v 0.3 1.9 -0.2
v 0.3 2 0.2
v 0.3 2 -0.2
v 0.3 2 -0.3
v 0.3 2.3 0.2
v 0.3 2.3 -0.2
v 0.3 2.3 -0.3
v 0.3 2.4 0.2
v 0.3 2.4 -0.2
v 0.4 2 0.2
v 0.4 2 -0.2
v 0.4 2.3 0.2
v 0.4 2.3 -0.2
v -0.1 1.9 0.3
v -0.1 2 0.3
v -0.1 2.1 0.3
v -0.1 2.2 0.3
v -2.98023e-08 2 0.3
v -2.98023e-08 2.1 0.3
v 0.1 2 0.3
v 0.1 2.1 0.3
v 0.2 1.9 0.3
v 0.2 2 0.3
v 0.2 2.1 0.3
v 0.2 2.2 0.3
v -0.3 2 0.2
v -0.3 2.3 0.2
v -0.2 1.9 0.2
v -0.2 2 0.2
v -0.2 2.3 0.2
v -0.2 2.4 0.2
v -0.1 1.9 0.2
v -0.1 2 0.2
v -0.1 2.1 0.2
v -0.1 2.2 0.2
v 0.2 1.9 0.2
v 0.2 2 0.2
v 0.2 2.1 0.2
v 0.2 2.2 0.2
v 0.3 1.9 0.2
v 0.3 2 0.2
v 0.3 2.3 0.2
v 0.3 2.4 0.2
v 0.4 2 0.2
v 0.4 2.3 0.2
v -0.2 1.7 0.1
v -0.2 1.8 0.1
v -0.1 1.4 0.1
v -0.1 1.6 0.1
v -0.1 1.7 0.1
v -0.1 1.8 0.1
v -0.1 1.9 0.1
v -0.1 2.4 0.1
v -0.1 2.5 0.1
v -2.98023e-08 1.4 0.1
v -2.98023e-08 1.6 0.1
v -2.98023e-08 1.8 0.1
v 0.1 1.4 0.1
v 0.1 1.6 0.1
v 0.1 1.8 0.1
v 0.2 1.4 0.1
v 0.2 1.6 0.1
v 0.2 1.7 0.1
v 0.2 1.8 0.1
v 0.2 1.9 0.1
v 0.2 2.4 0.1
v 0.2 2.5 0.1
v 0.3 1.7 0.1
v 0.3 1.8 0.1
v -2.98023e-08 2.5 2.98023e-08
v -2.98023e-08 2.6 2.98023e-08
v 0.1 2.5 2.98023e-08
v 0.1 2.6 2.98023e-08
v -0.2 1.7 2.98023e-08
v -0.2 1.8 2.98023e-08
v -0.1 1.4 2.98023e-08
v -0.1 1.6 2.98023e-08
v -0.1 1.7 2.98023e-08
v -0.1 1.8 2.98023e-08
v -0.1 1.9 2.98023e-08
v -2.98023e-08 1.4 2.98023e-08
v -2.98023e-08 1.6 2.98023e-08
v -2.98023e-08 1.8 2.98023e-08
v -2.98023e-08 1.9 2.98023e-08
v 0.1 1.4 2.98023e-08
v 0.1 1.6 2.98023e-08
v 0.1 1.8 2.98023e-08
v 0.1 1.9 2.98023e-08
v 0.2 1.4 2.98023e-08
v 0.2 1.6 2.98023e-08
v 0.2 1.7 2.98023e-08
v 0.2 1.8 2.98023e-08
v 0.2 1.9 2.98023e-08
v 0.3 1.7 2.98023e-08
v 0.3 1.8 2.98023e-08
v -2.98023e-08 2.5 -0.1
v -2.98023e-08 2.6 -0.1
v 0.1 2.5 -0.1
v 0.1 2.6 -0.1
v -0.3 2 -0.2
v -0.3 2.3 -0.2
v -0.2 1.9 -0.2
v -0.2 2 -0.2
v -0.2 2.3 -0.2
v -0.2 2.4 -0.2
v -0.1 1.9 -0.2
v -0.1 2 -0.2
v -0.1 2.3 -0.2
v -0.1 2.4 -0.2
v -0.1 2.5 -0.2
v 0.2 1.9 -0.2
v 0.2 2 -0.2
v 0.2 2.3 -0.2
v 0.2 2.4 -0.2
v 0.2 2.5 -0.2
v 0.3 1.9 -0.2
v 0.3 2 -0.2
v 0.3 2.3 -0.2
v 0.3 2.4 -0.2
v 0.4 2 -0.2
v 0.4 2.3 -0.2
v -0.2 2 -0.3
v -0.2 2.3 -0.3
v -0.1 1.9 -0.3
v -0.1 2 -0.3
v -0.1 2.2 -0.3
v -0.1 2.3 -0.3
v -0.1 2.4 -0.3
v 0.2 1.9 -0.3
v 0.2 2 -0.3
v 0.2 2.2 -0.3
v 0.2 2.3 -0.3
v 0.2 2.4 -0.3
v 0.3 2 -0.3
v 0.3 2.3 -0.3
v -0.1 2 -0.4
v -0.1 2.2 -0.4
v 0.2 2 -0.4
v 0.2 2.2 -0.4
v -0.1 1.4 0.1
v -2.98023e-08 1.4 0.1
v 0.1 1.4 0.1
v 0.2 1.4 0.1
v -0.1 1.4 2.98023e-08
v -2.98023e-08 1.4 2.98023e-08
v 0.1 1.4 2.98023e-08
v 0.2 1.4 2.98023e-08
v -2.98023e-08 1.6 0.1
v 0.1 1.6 0.1
v -2.98023e-08 1.6 2.98023e-08
v 0.1 1.6 2.98023e-08
v -0.2 1.7 0.1
v -0.1 1.7 0.1
v 0.2 1.7 0.1
v 0.3 1.7 0.1
v -0.2 1.7 2.98023e-08
v -0.1 1.7 2.98023e-08
v 0.2 1.7 2.98023e-08
v 0.3 1.7 2.98023e-08
v -0.1 1.8 0.1
v -2.98023e-08 1.8 0.1
v 0.1 1.8 0.1
v 0.2 1.8 0.1
v -0.1 1.8 2.98023e-08
v -2.98023e-08 1.8 2.98023e-08
v 0.1 1.8 2.98023e-08
v 0.2 1.8 2.98023e-08
v -0.1 1.9 0.3
v 0.2 1.9 0.3
v -0.2 1.9 0.2
v -0.1 1.9 0.2
v 0.2 1.9 0.2
v 0.3 1.9 0.2
v -0.1 1.9 0.1
v 0.2 1.9 0.1
v -0.1 1.9 2.98023e-08
v -2.98023e-08 1.9 2.98023e-08
v 0.1 1.9 2.98023e-08
v 0.2 1.9 2.98023e-08
v -2.98023e-08 1.9 -0.1
v 0.1 1.9 -0.1
v -0.2 1.9 -0.2
v -0.1 1.9 -0.2
v 0.2 1.9 -0.2
v 0.3 1.9 -0.2
v -0.1 1.9 -0.3
v 0.2 1.9 -0.3
v -0.3 2 0.2
v -0.2 2 0.2
v 0.3 2 0.2
v 0.4 2 0.2
v -0.3 2 -0.2
v -0.2 2 -0.2
v -0.1 2 -0.2
v 0.2 2 -0.2
v 0.3 2 -0.2
v 0.4 2 -0.2
v -0.2 2 -0.3
v -0.1 2 -0.3
v 0.2 2 -0.3
v 0.3 2 -0.3
v -0.1 2 -0.4
v 0.2 2 -0.4
v -0.1 1.6 0.1
v -2.98023e-08 1.6 0.1
v 0.1 1.6 0.1
v 0.2 1.6 0.1
v -0.1 1.6 2.98023e-08
v -2.98023e-08 1.6 2.98023e-08
v 0.1 1.6 2.98023e-08
v 0.2 1.6 2.98023e-08
v -0.2 1.8 0.1
v -0.1 1.8 0.1
v 0.2 1.8 0.1
v 0.3 1.8 0.1
v -0.2 1.8 2.98023e-08
v -0.1 1.8 2.98023e-08
v 0.2 1.8 2.98023e-08
v 0.3 1.8 2.98023e-08
v -0.1 2.2 0.3
v 0.2 2.2 0.3
v -0.1 2.2 0.2
v 0.2 2.2 0.2
v -0.1 2.2 -0.3
v 0.2 2.2 -0.3
v -0.1 2.2 -0.4
v 0.2 2.2 -0.4
v -0.3 2.3 0.2
v -0.2 2.3 0.2
v 0.3 2.3 0.2
v 0.4 2.3 0.2
v -0.3 2.3 -0.2
v -0.2 2.3 -0.2
v -0.1 2.3 -0.2
v 0.2 2.3 -0.2
v 0.3 2.3 -0.2
v 0.4 2.3 -0.2
v -0.2 2.3 -0.3
v -0.1 2.3 -0.3
v 0.2 2.3 -0.3
v 0.3 2.3 -0.3
v -0.2 2.4 0.2
v 0.3 2.4 0.2
v -0.1 2.4 0.1
v 0.2 2.4 0.1
v -0.2 2.4 -0.2
v -0.1 2.4 -0.2
v 0.2 2.4 -0.2
v 0.3 2.4 -0.2
v -0.1 2.4 -0.3
v 0.2 2.4 -0.3
v -0.1 2.5 0.1
v 0.2 2.5 0.1
v -2.98023e-08 2.5 2.98023e-08
v 0.1 2.5 2.98023e-08
v -2.98023e-08 2.5 -0.1
v 0.1 2.5 -0.1
v -0.1 2.5 -0.2
v 0.2 2.5 -0.2
v -2.98023e-08 2.6 2.98023e-08
v 0.1 2.6 2.98023e-08
v -2.98023e-08 2.6 -0.1
v 0.1 2.6 -0.1

# faces
f 3/2/1 2/2/1 1/2/1
f 4/2/1 2/2/1 3/2/1
f 7/1/1 6/1/1 5/1/1
f 8/1/1 6/1/1 7/1/1
f 11/2/1 10/2/1 9/2/1
f 12/2/1 10/2/1 11/2/1
f 15/2/1 13/2/1 12/2/1
f 16/2/1 13/2/1 15/2/1
f 17/2/1 15/2/1 14/2/1
f 18/2/1 15/2/1 17/2/1
f 21/1/1 20/1/1 19/1/1
f 22/1/1 20/1/1 21/1/1
f 27/1/1 24/1/1 23/1/1
f 28/1/1 24/1/1 27/1/1
f 31/1/1 26/1/1 25/1/1
f 32/1/1 26/1/1 31/1/1
f 33/2/1 30/2/1 29/2/1
f 34/2/1 30/2/1 33/2/1
f 36/3/1 32/3/1 31/3/1
f 37/3/1 32/3/1 36/3/1
f 38/1/1 37/1/1 36/1/1
f 39/1/1 37/1/1 38/1/1
f 40/2/1 35/2/1 34/2/1
f 41/2/1 35/2/1 40/2/1
f 45/2/1 43/2/1 42/2/1
f 46/2/1 43/2/1 45/2/1
f 47/2/1 45/2/1 44/2/1
f 48/2/1 45/2/1 47/2/1
f 51/1/1 50/1/1 49/1/1
f 52/1/1 50/1/1 51/1/1
f 55/2/1 54/2/1 53/2/1
f 56/2/1 54/2/1 55/2/1
f 59/1/1 58/1/1 57/1/1
f 60/1/1 58/1/1 59/1/1
f 63/1/1 62/1/1 61/1/1
f 64/1/1 62/1/1 63/1/1
f 65/1/2 66/1/2 67/1/2
f 67/1/2 66/1/2 68/1/2
f 69/1/2 70/1/2 71/1/2
f 71/1/2 70/1/2 72/1/2
f 73/1/2 74/1/2 75/1/2
f 75/1/2 74/1/2 76/1/2
f 77/2/2 78/2/2 79/2/2
f 79/2/2 78/2/2 80/2/2
f 81/1/2 82/1/2 83/1/2
f 83/1/2 82/1/2 84/1/2
f 85/1/2 86/1/2 89/1/2
f 89/1/2 86/1/2 90/1/2
f 87/1/2 88/1/2 93/1/2
f 93/1/2 88/1/2 94/1/2
f 91/2/2 92/2/2 95/2/2
f 95/2/2 92/2/2 96/2/2
f 93/3/2 94/3/2 98/3/2
f 98/3/2 94/3/2 99/3/2
f 98/1/2 99/1/2 100/1/2
f 100/1/2 99/1/2 101/1/2
f 96/2/2 97/2/2 102/2/2
f 102/2/2 97/2/2 103/2/2
f 104/2/2 105/2/2 107/2/2
f 107/2/2 105/2/2 108/2/2
f 106/2/2 107/2/2 109/2/2
f 109/2/2 107/2/2 110/2/2
f 111/1/2 112/1/2 113/1/2
f 113/1/2 112/1/2 114/1/2
f 115/2/2 116/2/2 117/2/2
f 117/2/2 116/2/2 118/2/2
f 118/2/2 119/2/2 121/2/2
f 121/2/2 119/2/2 122/2/2
f 120/2/2 121/2/2 123/2/2
f 123/2/2 121/2/2 124/2/2
f 125/2/2 126/2/2 127/2/2
f 127/2/2 126/2/2 128/2/2
f 133/1/3 130/1/3 129/1/3
f 133/3/3 131/3/3 130/3/3
f 134/1/3 132/1/3 131/1/3
f 134/3/3 131/3/3 133/3/3
f 135/1/3 133/1/3 129/1/3
f 135/1/3 134/1/3 133/1/3
f 136/1/3 132/1/3 134/1/3
f 136/1/3 134/1/3 135/1/3
f 137/1/3 135/1/3 129/1/3
f 138/3/3 136/3/3 135/3/3
f 138/1/3 135/1/3 137/1/3
f 139/1/3 132/1/3 136/1/3
f 139/3/3 136/3/3 138/3/3
f 140/1/3 132/1/3 139/1/3
f 144/2/3 142/2/3 141/2/3
f 145/2/3 142/2/3 144/2/3
f 147/2/3 144/2/3 143/2/3
f 147/2/3 146/2/3 145/2/3
f 147/2/3 145/2/3 144/2/3
f 148/2/3 146/2/3 147/2/3
f 149/2/3 146/2/3 148/2/3
f 150/2/3 146/2/3 149/2/3
f 154/2/3 146/2/3 150/2/3
f 155/2/3 153/2/3 152/2/3
f 155/2/3 154/2/3 153/2/3
f 155/2/3 152/2/3 151/2/3
f 156/2/3 154/2/3 155/2/3
f 157/2/3 146/2/3 154/2/3
f 157/2/3 154/2/3 156/2/3
f 158/2/3 146/2/3 157/2/3
f 159/2/3 157/2/3 156/2/3
f 160/2/3 157/2/3 159/2/3
f 165/1/3 162/1/3 161/1/3
f 166/1/3 162/1/3 165/1/3
f 170/1/3 164/1/3 163/1/3
f 171/1/3 164/1/3 170/1/3
f 172/1/3 167/1/3 166/1/3
f 174/1/3 172/1/3 171/1/3
f 175/1/3 167/1/3 172/1/3
f 175/1/3 172/1/3 174/1/3
f 176/1/3 174/1/3 173/1/3
f 177/1/3 174/1/3 176/1/3
f 179/1/3 167/1/3 175/1/3
f 180/1/3 167/1/3 179/1/3
f 181/2/3 169/2/3 168/2/3
f 182/2/3 169/2/3 181/2/3
f 183/1/3 179/1/3 178/1/3
f 184/1/3 179/1/3 183/1/3
f 187/2/3 186/2/3 185/2/3
f 188/2/3 186/2/3 187/2/3
f 189/1/4 190/1/4 193/1/4
f 193/1/4 190/1/4 194/1/4
f 191/1/4 192/1/4 196/1/4
f 196/1/4 192/1/4 197/1/4
f 194/1/4 195/1/4 198/1/4
f 198/1/4 195/1/4 199/1/4
f 197/1/4 198/1/4 201/1/4
f 198/1/4 199/1/4 201/1/4
f 201/1/4 199/1/4 202/1/4
f 202/1/4 199/1/4 203/1/4
f 200/1/4 201/1/4 204/1/4
f 204/1/4 201/1/4 205/1/4
f 202/1/4 203/1/4 207/1/4
f 207/1/4 203/1/4 208/1/4
f 206/1/4 207/1/4 209/1/4
f 209/1/4 207/1/4 210/1/4
f 211/2/4 212/2/4 213/2/4
f 213/2/4 212/2/4 214/2/4
f 215/2/4 216/2/4 218/2/4
f 218/2/4 216/2/4 219/2/4
f 217/2/4 218/2/4 221/2/4
f 221/2/4 218/2/4 222/2/4
f 219/2/4 220/2/4 223/2/4
f 223/2/4 220/2/4 224/2/4
f 224/2/4 225/2/4 229/2/4
f 229/2/4 225/2/4 230/2/4
f 226/2/4 227/2/4 231/2/4
f 231/2/4 227/2/4 232/2/4
f 228/2/4 229/2/4 233/2/4
f 233/2/4 229/2/4 234/2/4
f 232/2/4 233/2/4 235/2/4
f 235/2/4 233/2/4 236/2/4
f 237/2/4 238/2/4 240/2/4
f 240/2/4 238/2/4 241/2/4
f 241/2/4 238/2/4 242/2/4
f 239/2/4 240/2/4 244/2/4
f 244/2/4 240/2/4 245/2/4
f 242/2/4 243/2/4 246/2/4
f 241/2/4 242/2/4 246/2/4
f 246/2/4 243/2/4 247/2/4
f 247/2/4 243/2/4 248/2/4
f 245/2/4 246/2/4 249/2/4
f 246/2/4 247/2/4 249/2/4
f 249/2/4 247/2/4 250/2/4
f 251/2/4 252/2/4 253/2/4
f 253/2/4 252/2/4 254/2/4
f 259/1/5 256/1/5 255/1/5
f 260/1/5 256/1/5 259/1/5
f 261/1/5 258/1/5 257/1/5
f 262/1/5 258/1/5 261/1/5
f 265/1/5 264/1/5 263/1/5
f 266/1/5 264/1/5 265/1/5
f 271/1/5 268/1/5 267/1/5
f 272/1/5 268/1/5 271/1/5
f 273/1/5 270/1/5 269/1/5
f 274/1/5 270/1/5 273/1/5
f 279/1/5 276/1/5 275/1/5
f 280/1/5 276/1/5 279/1/5
f 281/1/5 278/1/5 277/1/5
f 282/1/5 278/1/5 281/1/5
f 286/1/5 284/1/5 283/1/5
f 287/1/5 284/1/5 286/1/5
f 289/2/5 286/2/5 285/2/5
f 289/1/5 287/1/5 286/1/5
f 290/2/5 288/2/5 287/2/5
f 290/1/5 287/1/5 289/1/5
f 291/2/5 289/2/5 285/2/5
f 294/2/5 288/2/5 290/2/5
f 295/1/5 293/1/5 292/1/5
f 295/2/5 292/2/5 291/2/5
f 296/2/5 294/2/5 293/2/5
f 296/1/5 293/1/5 295/1/5
f 297/2/5 295/2/5 291/2/5
f 297/2/5 291/2/5 285/2/5
f 297/2/5 296/2/5 295/2/5
f 298/2/5 296/2/5 297/2/5
f 299/2/5 294/2/5 296/2/5
f 299/2/5 296/2/5 298/2/5
f 299/2/5 288/2/5 294/2/5
f 300/2/5 288/2/5 299/2/5
f 301/2/5 299/2/5 298/2/5
f 302/2/5 299/2/5 301/2/5
f 307/2/5 304/2/5 303/2/5
f 308/2/5 304/2/5 307/2/5
f 311/2/5 306/2/5 305/2/5
f 312/2/5 306/2/5 311/2/5
f 313/2/5 309/2/5 308/2/5
f 314/2/5 309/2/5 313/2/5
f 315/2/5 311/2/5 310/2/5
f 316/2/5 311/2/5 315/2/5
f 317/2/5 315/2/5 314/2/5
f 318/2/5 315/2/5 317/2/5
f 319/1/6 320/1/6 323/1/6
f 323/1/6 320/1/6 324/1/6
f 321/1/6 322/1/6 325/1/6
f 325/1/6 322/1/6 326/1/6
f 327/1/6 328/1/6 331/1/6
f 331/1/6 328/1/6 332/1/6
f 329/1/6 330/1/6 333/1/6
f 333/1/6 330/1/6 334/1/6
f 335/1/6 336/1/6 337/1/6
f 337/1/6 336/1/6 338/1/6
f 339/2/6 340/2/6 341/2/6
f 341/2/6 340/2/6 342/2/6
f 343/2/6 344/2/6 347/2/6
f 347/2/6 344/2/6 348/2/6
f 345/2/6 346/2/6 351/2/6
f 351/2/6 346/2/6 352/2/6
f 348/2/6 349/2/6 353/2/6
f 353/2/6 349/2/6 354/2/6
f 350/2/6 351/2/6 355/2/6
f 355/2/6 351/2/6 356/2/6
f 357/2/6 358/2/6 359/2/6
f 359/2/6 358/2/6 360/2/6
f 357/2/6 359/2/6 361/2/6
f 361/2/6 359/2/6 362/2/6
f 360/2/6 358/2/6 363/2/6
f 363/2/6 358/2/6 364/2/6
f 362/2/6 363/2/6 365/2/6
f 365/2/6 363/2/6 366/2/6
f 367/2/6 368/2/6 369/2/6
f 369/2/6 368/2/6 370/2/6
f 367/2/6 369/2/6 371/2/6
f 370/2/6 368/2/6 372/2/6
f 367/2/6 371/2/6 373/2/6
f 371/2/6 372/2/6 373/2/6
f 372/2/6 368/2/6 374/2/6
f 373/2/6 372/2/6 374/2/6
f 375/2/6 376/2/6 377/2/6
f 377/2/6 376/2/6 378/2/6
